<svg width="18" height="18" viewBox="0 0 18 18" fill="none" xmlns="http://www.w3.org/2000/svg">
<path d="M17.9537 15.423C17.8728 15.0434 17.5037 14.7973 17.1205 14.8781C16.7409 14.959 16.4948 15.3281 16.5756 15.7113C16.6213 15.9293 16.5686 16.1543 16.428 16.3266C16.3471 16.425 16.1643 16.5938 15.8655 16.5938H2.13448C1.83567 16.5938 1.65287 16.425 1.57202 16.3266C1.4314 16.1543 1.37867 15.9293 1.42437 15.7113C2.15557 12.2063 5.24558 9.64687 8.81368 9.55898C8.87696 9.5625 8.93672 9.5625 9 9.5625C9.06328 9.5625 9.12655 9.5625 9.18631 9.55898C11.6998 9.61875 14.0235 10.8914 15.4331 12.9938C15.6511 13.3172 16.087 13.4016 16.4104 13.1871C16.7338 12.9691 16.8182 12.5332 16.6038 12.2133C15.4507 10.4941 13.7739 9.24258 11.865 8.61328C13.0251 7.73438 13.7809 6.3457 13.7809 4.78125C13.7809 2.14453 11.6365 0 9 0C6.36347 0 4.21909 2.14453 4.21909 4.78125C4.21909 6.3457 4.9749 7.73789 6.13849 8.60977C5.06981 8.96133 4.06793 9.50977 3.1926 10.2305C1.58608 11.5523 0.468189 13.398 0.046344 15.423C-0.0872402 16.0594 0.0709516 16.7098 0.48225 17.2125C0.890034 17.7117 1.49116 18 2.13448 18H15.8655C16.5088 18 17.1135 17.7117 17.5177 17.2125C17.929 16.7098 18.0872 16.0594 17.9537 15.423ZM5.62524 4.78125C5.62524 2.92148 7.14037 1.40625 9 1.40625C10.8596 1.40625 12.3748 2.92148 12.3748 4.78125C12.3748 6.58477 10.951 8.06133 9.17225 8.15273C9.11601 8.15273 9.05976 8.15273 9 8.15273C8.94375 8.15273 8.88751 8.15273 8.83126 8.15273C7.04897 8.06484 5.62524 6.58477 5.62524 4.78125Z" fill="#00A77F"/>
</svg>
