<svg width="14" height="12" viewBox="0 0 14 12" fill="none" xmlns="http://www.w3.org/2000/svg">
<path d="M11.8973 2.10273C11.7113 1.9168 11.4188 1.88945 11.2027 2.03711C10.3852 2.59492 6.28086 5.40039 5.83789 5.84063C5.19805 6.48047 5.19805 7.52227 5.83789 8.16211C6.15781 8.48203 6.57891 8.64062 6.99727 8.64062C7.41562 8.64062 7.83672 8.48203 8.15664 8.16211C8.59687 7.72187 11.4023 3.61758 11.9602 2.79727C12.1105 2.57852 12.0832 2.28867 11.8973 2.10273ZM7.38555 7.38555C7.17227 7.59883 6.825 7.59883 6.61172 7.38555C6.39844 7.17227 6.39844 6.825 6.61172 6.61172C6.78398 6.44219 7.94883 5.61094 9.38164 4.61563C8.38633 6.05117 7.55508 7.21602 7.38555 7.38555ZM14 7C14 8.38086 13.5898 9.72617 12.8133 10.8855C12.7094 11.0414 12.5371 11.1289 12.3594 11.1289C12.2801 11.1289 12.2008 11.1125 12.1242 11.077L10.9758 10.5301C10.7023 10.4016 10.5875 10.0734 10.716 9.8C10.8473 9.52656 11.1727 9.41172 11.4461 9.54023L12.1516 9.87656C12.6465 8.99336 12.9062 8.00898 12.9062 7C12.9062 6.15508 12.7313 5.3375 12.3867 4.57187C12.2637 4.2957 12.384 3.97305 12.6602 3.84727C12.9363 3.72422 13.259 3.84453 13.3848 4.1207C13.7922 5.02852 14 5.99648 14 7ZM3.25391 9.79453C3.38516 10.0652 3.27305 10.3934 3.00234 10.5246L1.88125 11.0715C1.80469 11.1098 1.72266 11.1262 1.64062 11.1262C1.46289 11.1262 1.29063 11.0387 1.18672 10.8828C0.410156 9.72617 0 8.38086 0 7C0 5.12969 0.727344 3.37148 2.05078 2.05078C3.37148 0.727344 5.12969 0 7 0C8.00352 0 8.97148 0.207813 9.87656 0.617969C10.1527 0.741016 10.273 1.06641 10.15 1.34258C10.027 1.61875 9.70156 1.73906 9.42539 1.61602C8.82656 1.34531 8.19766 1.18125 7.54414 1.12109V1.94141C7.54414 2.24219 7.29805 2.48828 6.99727 2.48828C6.69648 2.48828 6.45039 2.24219 6.45039 1.94141V1.11836C4.55 1.29336 2.90664 2.37344 1.95781 3.92109L2.7207 4.2875C2.99414 4.41875 3.10898 4.74414 2.97773 5.01758C2.88477 5.21445 2.68789 5.3293 2.48555 5.3293C2.40625 5.3293 2.32695 5.31289 2.25039 5.27461L1.47656 4.90273C1.23047 5.55625 1.09375 6.26172 1.09375 7C1.09375 8.00625 1.35352 8.99063 1.8457 9.87383L2.52109 9.5457C2.79453 9.41172 3.11992 9.52383 3.25391 9.79453Z" fill="#00A77F"/>
</svg>
