<svg width="10" height="16" viewBox="0 0 10 16" fill="none" xmlns="http://www.w3.org/2000/svg">
<path d="M5 15.9986C3.70757 16.0287 2.45544 15.5657 1.51816 14.711C0.580872 13.8563 0.0349182 12.6798 0 11.4393V3.30449C0.0240284 2.40774 0.417204 1.55666 1.09347 0.937523C1.76973 0.318387 2.674 -0.0183664 3.60833 0.000971079C4.5441 -0.0205147 5.45051 0.315282 6.12858 0.934646C6.80666 1.55401 7.20098 2.40632 7.225 3.30449V11.4473C7.19034 11.9901 6.94128 12.4997 6.5286 12.8723C6.11592 13.2449 5.57071 13.4523 5.00417 13.4523C4.43762 13.4523 3.89241 13.2449 3.47973 12.8723C3.06705 12.4997 2.81799 11.9901 2.78333 11.4473V3.93639C2.78333 3.72425 2.87113 3.5208 3.02741 3.37079C3.18369 3.22078 3.39565 3.13651 3.61667 3.13651C3.83768 3.13651 4.04964 3.22078 4.20592 3.37079C4.3622 3.5208 4.45 3.72425 4.45 3.93639V11.4473C4.46662 11.5771 4.53214 11.6967 4.63422 11.7833C4.7363 11.87 4.86788 11.9179 5.00417 11.9179C5.14046 11.9179 5.27204 11.87 5.37411 11.7833C5.47619 11.6967 5.54171 11.5771 5.55833 11.4473V3.30449C5.53243 2.83128 5.31314 2.38698 4.94806 2.06801C4.58299 1.74903 4.10158 1.58113 3.60833 1.60074C3.11649 1.58328 2.63723 1.75216 2.27397 2.07091C1.91071 2.38966 1.69258 2.83272 1.66667 3.30449V11.4393C1.70136 12.2555 2.07164 13.0253 2.69641 13.58C3.32118 14.1347 4.14952 14.4292 5 14.3989C5.85048 14.4292 6.67882 14.1347 7.30359 13.58C7.92836 13.0253 8.29864 12.2555 8.33333 11.4393V3.30449C8.33333 3.09234 8.42113 2.88889 8.57741 2.73888C8.73369 2.58888 8.94565 2.5046 9.16667 2.5046C9.38768 2.5046 9.59964 2.58888 9.75592 2.73888C9.9122 2.88889 10 3.09234 10 3.30449V11.4393C9.96508 12.6798 9.41913 13.8563 8.48184 14.711C7.54455 15.5657 6.29243 16.0287 5 15.9986Z" fill="#00A77F"/>
</svg>
