<svg width="14" height="14" viewBox="0 0 14 14" fill="none" xmlns="http://www.w3.org/2000/svg">
<path d="M13.5451 7.02184C13.5341 7.01088 13.5231 7.00266 13.5122 6.9917L9.83277 3.86023C9.31222 3.4164 8.64922 3.17257 7.96703 3.17257C7.96429 3.17257 7.96156 3.17257 7.95608 3.17257C7.1917 3.17531 6.47116 3.47393 5.93144 4.01639L5.43556 4.51228C5.22734 4.7205 4.88214 4.72598 4.67118 4.5205C4.56981 4.42187 4.51228 4.28762 4.50954 4.13968C4.5068 3.98352 4.56981 3.83283 4.67666 3.72599C4.68214 3.72051 4.68488 3.71777 4.69036 3.71229L5.76706 2.56436C6.59993 1.67669 7.75608 1.14793 8.96976 1.09862L13.1067 4.47118C13.3396 4.66296 13.6848 4.62735 13.8766 4.39173C14.0683 4.15886 14.0327 3.81366 13.7971 3.62188L9.50674 0.123286C9.40811 0.0438351 9.28757 0 9.16154 0C8.13142 0 7.12595 0.279449 6.25199 0.794512C5.36706 0.27397 4.36434 0 3.33695 0C3.19175 0 3.05202 0.0575336 2.95065 0.158902L0.161642 2.94791C-0.0520542 3.16161 -0.0520542 3.50681 0.161642 3.72051C0.26849 3.82735 0.408215 3.88215 0.547939 3.88215C0.687664 3.88215 0.827388 3.83009 0.934236 3.72325L3.55886 1.09862C4.15338 1.12601 4.73419 1.26848 5.27391 1.51505C5.16981 1.61094 5.06844 1.70957 4.96981 1.81368L3.89859 2.95887C3.589 3.27394 3.41366 3.70681 3.4164 4.15064C3.42188 4.59447 3.59722 5.00542 3.91229 5.30953C4.22461 5.60816 4.63282 5.77254 5.0657 5.76706C5.49857 5.76432 5.90404 5.59172 6.21089 5.28761L6.70677 4.79173C7.04102 4.45748 7.48759 4.27119 7.96156 4.26845H7.96703C8.38895 4.26845 8.7999 4.41913 9.12319 4.6931L12.7834 7.80813C12.9533 7.98895 12.9478 8.27662 12.7697 8.45196C12.6821 8.53963 12.567 8.58621 12.441 8.58621C12.3149 8.58621 12.1999 8.53963 12.1122 8.45196L11.9999 8.33963C11.7862 8.12594 11.441 8.12594 11.2273 8.33963C11.0136 8.55333 11.0136 8.89853 11.2273 9.11223L11.3396 9.22456C11.3725 9.25743 11.4081 9.28757 11.4437 9.31771C11.4601 9.33962 11.4766 9.3588 11.4958 9.37798C11.6766 9.5588 11.6766 9.85468 11.4958 10.0355C11.3149 10.2163 11.0191 10.2163 10.8382 10.0355C10.8355 10.0328 10.8355 10.0328 10.8328 10.03L10.6519 9.84921C10.4382 9.63551 10.093 9.63551 9.87934 9.84921C9.66565 10.0629 9.66565 10.4081 9.87934 10.6218L10.0054 10.7478C10.1013 10.8437 10.1561 10.978 10.1615 11.1177C10.1643 11.1944 10.1533 11.3396 10.0437 11.4464C9.87386 11.6163 9.57524 11.5999 9.38346 11.4081C9.3725 11.3971 9.36154 11.3889 9.35058 11.378L9.26839 11.3067C9.04373 11.1149 8.71223 11.1369 8.51223 11.3506C8.31224 11.567 8.32046 11.9012 8.52593 12.1095C8.61634 12.1999 8.6684 12.3204 8.6684 12.4464C8.67114 12.567 8.62456 12.6821 8.53963 12.767C8.35881 12.9478 8.06018 12.9451 7.87114 12.756L7.79443 12.6793C8.01909 12.1095 7.90128 11.4355 7.44101 10.978C7.23554 10.7725 6.98348 10.6273 6.71225 10.556C6.78075 10.0876 6.6328 9.59167 6.27116 9.23003C5.99993 8.9588 5.65473 8.81086 5.30131 8.78072C5.27391 8.43004 5.12323 8.08484 4.84926 7.80813C4.57803 7.5369 4.23009 7.38622 3.87393 7.35882C3.84653 7.00266 3.69585 6.65472 3.42462 6.38349C2.81915 5.7835 1.8356 5.78076 1.22738 6.38349L0.463009 7.12321C0.460269 7.12595 0.457529 7.12869 0.454789 7.12869C0.161642 7.42184 0 7.81361 0 8.23005C0 8.64648 0.161642 9.03826 0.454789 9.3314C0.687664 9.56428 0.975332 9.70674 1.2767 9.76154C1.263 10.178 1.41368 10.5999 1.73149 10.9177C2.01368 11.1999 2.39175 11.356 2.79723 11.356C2.80545 11.356 2.81367 11.356 2.81915 11.356C2.86298 11.6821 3.00819 11.9944 3.2575 12.2437C3.55886 12.5451 3.95612 12.6957 4.35612 12.6957C4.38899 12.6957 4.42187 12.693 4.45748 12.693C4.51502 13.0108 4.66844 13.304 4.89858 13.5368C5.20816 13.8464 5.61364 13.9998 6.01911 13.9998C6.41637 13.9998 6.81088 13.8519 7.11773 13.556C7.42183 13.8519 7.81635 13.9998 8.21087 13.9998C8.61086 13.9998 9.00812 13.8492 9.30948 13.5478C9.55058 13.3067 9.70126 12.9971 9.7451 12.6629C10.1341 12.6629 10.5177 12.5177 10.8108 12.2273C11.0656 11.9725 11.2163 11.6355 11.2437 11.2656C11.63 11.2465 11.9889 11.0875 12.2629 10.8136C12.5807 10.4958 12.7314 10.0739 12.7177 9.65743C13.0273 9.60263 13.3122 9.45469 13.5396 9.22729C14.1505 8.61908 14.1505 7.63005 13.5451 7.02184ZM1.89313 8.55333C1.89039 8.55607 1.88765 8.55881 1.88491 8.55881C1.79724 8.64648 1.68217 8.69305 1.55615 8.69305C1.43012 8.69305 1.31505 8.64374 1.22738 8.55881C1.13971 8.47114 1.09314 8.35607 1.09314 8.23005C1.09314 8.10676 1.13971 7.99169 1.22464 7.90402L1.98902 7.16704C1.99176 7.1643 1.9945 7.16156 1.99724 7.16156C2.08491 7.07389 2.19998 7.02732 2.326 7.02732C2.45203 7.02732 2.56709 7.07389 2.65476 7.16156C2.74244 7.24923 2.78901 7.3643 2.78901 7.49033C2.78901 7.59444 2.75613 7.69307 2.69312 7.77252C2.67942 7.78622 2.66572 7.79991 2.64929 7.81361L2.08765 8.36429L1.89313 8.55333ZM3.14791 10.1232C2.95613 10.2985 2.66846 10.3095 2.50408 10.1451C2.32326 9.96427 2.32326 9.67113 2.50134 9.49031L2.85202 9.14784L3.41914 8.5999C3.42188 8.59717 3.42462 8.59443 3.42736 8.59443C3.44106 8.58073 3.45476 8.56429 3.47119 8.55059C3.65201 8.41087 3.91502 8.42456 4.08215 8.59169C4.26297 8.77251 4.26297 9.03278 4.08489 9.2136L3.14791 10.1232ZM4.70132 11.4601C4.70132 11.4601 4.69858 11.4601 4.70132 11.4601C4.51228 11.6492 4.21639 11.6519 4.03283 11.4711C3.85201 11.2903 3.85475 10.9917 4.04105 10.8054L4.84104 10.0136C4.84104 10.0136 4.84378 10.0136 4.84378 10.0108C4.93145 9.92318 5.04652 9.8766 5.17254 9.8766C5.29857 9.8766 5.41364 9.92318 5.50131 10.0108C5.68213 10.1917 5.68213 10.4848 5.50131 10.6684L4.70132 11.4601ZM6.66842 12.4547C6.66568 12.4574 6.66294 12.4601 6.6602 12.4629L6.36705 12.767C6.17527 12.956 5.86569 12.956 5.67391 12.7642C5.58076 12.6711 5.52597 12.5423 5.52597 12.4081C5.52323 12.2766 5.57254 12.1533 5.66295 12.0629L5.99171 11.7341C6.07938 11.6464 6.19171 11.6026 6.30952 11.6026C6.43554 11.6026 6.56705 11.6547 6.66842 11.756C6.8602 11.9506 6.8602 12.2601 6.66842 12.4547Z" fill="#00A77F"/>
</svg>
