<svg width="14" height="14" viewBox="0 0 14 14" fill="none" xmlns="http://www.w3.org/2000/svg">
<path d="M12.9063 10.7203V10.1479C12.9063 9.45157 12.3412 8.88647 11.6448 8.88647H6.3985C6.09589 8.88647 5.85162 9.13074 5.85162 9.43334C5.85162 9.56459 5.89537 9.68126 5.97193 9.77605L6.08131 9.87813C6.08495 9.88178 6.0886 9.88543 6.09225 9.88907C6.17975 9.94741 6.28548 9.98386 6.3985 9.98386H9.13287C9.43548 9.98386 9.67975 10.2281 9.67975 10.5307C9.67975 10.8333 9.43548 11.0776 9.13287 11.0776H6.3985C5.92454 11.0776 5.49433 10.8734 5.19537 10.549L2.03808 7.66511C2.03443 7.66147 2.02714 7.65782 2.0235 7.65053C1.91777 7.54845 1.77923 7.49376 1.63704 7.49376C1.4912 7.49376 1.35266 7.55209 1.25058 7.65782C1.1485 7.76355 1.09381 7.89845 1.09381 8.04428C1.09381 8.18647 1.15214 8.32136 1.25423 8.42345L4.036 11.0011C4.03964 11.0047 4.04329 11.0083 4.04329 11.0083C5.30839 12.2297 6.97089 12.9042 8.72818 12.9042H13.4532C13.7558 12.9042 14.0001 13.1484 14.0001 13.4511C14.0001 13.7537 13.7558 13.9979 13.4532 13.9979H8.73183C7.71829 13.9979 6.73027 13.8047 5.79329 13.4255C4.85631 13.0464 4.01412 12.4995 3.2886 11.7958L0.503183 9.21824C0.499537 9.21459 0.495892 9.21095 0.492246 9.2073C0.178704 8.9047 0.00370405 8.49272 5.82178e-05 8.05522C-0.00358762 7.61772 0.164121 7.20209 0.470371 6.8922C0.776621 6.57866 1.1886 6.40366 1.6261 6.40001C2.05995 6.39636 2.47193 6.56043 2.78183 6.86303L4.88912 8.78803C5.14068 8.2047 5.72037 7.79272 6.3985 7.79272H11.6448C12.9428 7.79272 14.0001 8.85001 14.0001 10.1479V10.7203C14.0001 11.0229 13.7558 11.2672 13.4532 11.2672C13.1506 11.2672 12.9063 11.0229 12.9063 10.7203ZM3.23756 4.36199C1.91048 3.04584 1.90683 0.854697 1.91412 0.559384C1.91048 0.260426 2.14381 0.0125094 2.44277 0.00157186C2.5412 -0.00207398 4.91464 -0.0713448 6.30735 1.30678C6.84329 1.83543 7.11308 2.4297 7.10943 3.06772C7.10579 3.49428 7.02193 3.86251 6.86516 4.16876C7.12766 4.50418 7.34641 4.82501 7.52141 5.10209C7.69277 4.82501 7.90787 4.50782 8.17037 4.17605C8.01725 3.8698 7.93704 3.50522 7.93339 3.0823C7.92975 2.44063 8.19954 1.84636 8.73548 1.31407C10.1245 -0.0713448 12.498 -0.00207398 12.5964 0.00157186C12.8954 0.0125094 13.1323 0.264072 13.1214 0.56303V0.566676C13.1287 0.905738 13.1105 3.07136 11.798 4.37657C11.2547 4.91615 10.6605 5.18959 10.0297 5.18959C9.61048 5.18959 9.24589 5.10938 8.94329 4.95626C8.34173 5.75105 8.02089 6.44376 8.01725 6.4547C7.92975 6.65157 7.73287 6.77553 7.51777 6.77553C7.30266 6.77553 7.10943 6.65157 7.01829 6.4547C7.01464 6.44376 6.68652 5.73647 6.07402 4.93803C5.77506 5.08751 5.41412 5.16407 5.00214 5.16407C4.37506 5.17136 3.78079 4.89793 3.23756 4.36199ZM9.0235 3.07866C9.0235 3.1297 9.02714 3.17709 9.03079 3.22449C9.20579 3.05678 9.39537 2.89272 9.59225 2.73959C9.83287 2.55366 10.1756 2.59741 10.3579 2.83803C10.5438 3.07866 10.5001 3.42136 10.2594 3.60366C10.0662 3.75313 9.88756 3.91355 9.7162 4.07761C9.81829 4.09584 9.92402 4.09949 10.0297 4.09949C10.3652 4.09949 10.6933 3.93907 11.0287 3.60366C11.6995 2.93647 11.9402 1.84272 12.0094 1.11355C11.3422 1.17188 10.212 1.3797 9.5011 2.08699C9.07089 2.52449 9.0235 2.85991 9.0235 3.07866ZM3.03339 1.1172C3.09537 1.77709 3.30318 2.88543 4.01048 3.58543C4.34589 3.9172 4.67402 4.07761 5.00943 4.07761C5.11516 4.07761 5.20995 4.07032 5.29745 4.05574C5.13704 3.89897 4.96204 3.74949 4.77975 3.6073C4.54277 3.42136 4.49902 3.07866 4.68131 2.84168C4.86725 2.6047 5.20995 2.56095 5.44693 2.74324C5.64381 2.89636 5.83339 3.06043 6.00839 3.22449C6.01204 3.17345 6.01568 3.11876 6.01568 3.06043C6.01568 2.84532 5.96829 2.50991 5.53808 2.08334C4.86725 1.42345 3.76256 1.18282 3.03339 1.1172Z" fill="#00A77F"/>
</svg>
