<svg width="14" height="14" viewBox="0 0 14 14" fill="none" xmlns="http://www.w3.org/2000/svg">
<path d="M3.60803 13.4776C3.29905 13.4776 2.99007 13.3792 2.7221 13.1851C2.18343 12.794 1.97015 12.1323 2.17523 11.5007L3.03929 8.84017C3.09397 8.6679 3.03382 8.48197 2.8889 8.37806L0.624852 6.73472C0.0861842 6.3437 -0.12983 5.67652 0.0779811 5.03942C0.285792 4.40231 0.849069 3.99216 1.51078 3.99216H4.30803C4.49396 3.99216 4.64709 3.88552 4.70178 3.72146L5.56583 1.04452C5.77364 0.410153 6.33692 0 7.00137 0C7.66582 0 8.22909 0.410153 8.43417 1.04179L9.29823 3.72146C9.35291 3.88552 9.50604 3.99216 9.69197 3.99216H12.4892C13.1537 3.99216 13.7169 4.40231 13.922 5.03942C14.1298 5.67652 13.9138 6.3437 13.3751 6.73472L11.833 7.8558C11.5896 8.03353 11.2478 7.97885 11.0701 7.73549C10.8924 7.49213 10.947 7.15034 11.1904 6.9726L12.7326 5.85152C12.9595 5.68746 12.9048 5.44683 12.883 5.37848C12.8611 5.31012 12.7681 5.08863 12.4892 5.08863H9.69197C9.03299 5.08863 8.45878 4.67575 8.25917 4.06052L7.39511 1.38085C7.30762 1.11288 7.07246 1.09374 7.00137 1.09374C6.93027 1.09374 6.69512 1.11562 6.60762 1.38085L5.74356 4.05505C5.54396 4.67028 4.96701 5.08317 4.31076 5.08317H1.51078C1.23461 5.08317 1.13891 5.30465 1.11704 5.37301C1.09516 5.44137 1.03774 5.67926 1.26743 5.84605L3.53147 7.4894C4.06194 7.87494 4.28068 8.55306 4.07834 9.17376L3.21429 11.8343C3.12679 12.0995 3.30725 12.2554 3.36468 12.2964C3.4221 12.3374 3.62444 12.4605 3.85139 12.2964L6.11544 10.653C6.6459 10.2675 7.35683 10.2675 7.8873 10.653L10.1513 12.2964C10.3783 12.4605 10.5806 12.3374 10.6381 12.2964C10.6955 12.2554 10.8759 12.0995 10.7884 11.8343L10.1978 10.0132C10.1049 9.7261 10.2607 9.41712 10.5478 9.32415C10.8349 9.23118 11.1439 9.38704 11.2369 9.67415L11.8275 11.4952C12.0326 12.1269 11.8193 12.7886 11.2806 13.1796C10.742 13.5706 10.0474 13.5706 9.50877 13.1796L7.24473 11.5362C7.0998 11.4296 6.90293 11.4296 6.75801 11.5362L4.49396 13.1796C4.226 13.3819 3.91702 13.4776 3.60803 13.4776Z" fill="#00A77F"/>
</svg>
