<svg width="14" height="16" viewBox="0 0 14 16" fill="none" xmlns="http://www.w3.org/2000/svg">
<path d="M14 4.11771C14 5.06236 13.6571 5.90413 13.0117 6.54949C12.6812 6.87684 12.1107 7.22602 11.5433 7.39749V10.9236C11.5433 11.2665 11.2658 11.5471 10.9198 11.5471C10.5768 11.5471 10.2962 11.2696 10.2962 10.9236V6.88619C10.2962 6.55261 10.5581 6.28137 10.8886 6.26578C11.2627 6.24707 11.8738 5.92596 12.1325 5.66719C12.6469 5.15278 12.7561 4.54171 12.7561 4.11771C12.7561 3.35077 12.4225 2.53394 11.8551 1.88235V3.67189C11.8551 3.88701 11.7428 4.08654 11.562 4.19877L10.0125 5.16525C9.80986 5.28995 9.55422 5.28995 9.35157 5.16213L7.8208 4.19565C7.63997 4.0803 7.53085 3.88389 7.53085 3.66877V1.86053C7.04762 2.39988 6.72338 3.05771 6.62673 3.69995C6.51138 4.46689 6.72338 5.16525 7.22844 5.66719C7.47785 5.9166 8.08892 6.23772 8.47239 6.26266C8.79974 6.28449 9.05227 6.55572 9.05227 6.88308V14.063C9.05227 14.2314 9.11463 14.3873 9.2331 14.5058C9.34845 14.6211 9.50122 14.6866 9.66645 14.6866C9.83481 14.6866 9.99069 14.6211 10.1092 14.5026C10.2307 14.3811 10.2962 14.2252 10.2962 14.063C10.2962 13.7201 10.5737 13.4395 10.9198 13.4395C11.2627 13.4395 11.5433 13.717 11.5433 14.063C11.5433 14.5588 11.3469 15.0295 10.9915 15.3849C10.636 15.7403 10.1653 15.9336 9.66645 15.9336C9.16763 15.9336 8.69686 15.7372 8.34768 15.3849C7.9985 15.0326 7.80833 14.565 7.80833 14.0662V7.39126C7.24091 7.21355 6.67038 6.87061 6.34926 6.54949C5.55738 5.76072 5.21755 4.68201 5.39526 3.51289C5.54179 2.54329 6.0562 1.55811 6.81068 0.806757C7.0975 0.519932 7.45603 0.270519 7.87692 0.0647537C8.07021 -0.0318938 8.2978 -0.0194232 8.48174 0.0959303C8.66568 0.208166 8.7748 0.410814 8.7748 0.622815V3.32894L9.68516 3.90259L10.6111 3.32583V0.625933C10.6111 0.410814 10.7233 0.211284 10.9042 0.0959303C11.0881 -0.0163055 11.3157 -0.0287762 11.509 0.0678713C11.9049 0.264284 12.2541 0.513697 12.5534 0.809874C13.4575 1.714 14 2.95171 14 4.11771ZM2.64548 5.05613V8.11144C2.90425 8.20185 3.14431 8.3515 3.34384 8.55103C3.69613 8.90332 3.88943 9.37097 3.88943 9.8698V14.0942C3.88943 14.5931 3.69613 15.0607 3.34384 15.413C2.99154 15.7715 2.52389 15.9648 2.02507 15.9648C1.52624 15.9648 1.05859 15.7715 0.706296 15.4192C0.350883 15.0638 0.157588 14.5962 0.157588 14.0973V9.87291C0.157588 9.06232 0.678238 8.3702 1.40153 8.11144V5.11848L0.179412 3.88077C0.0266464 3.728 -0.0325891 3.50665 0.0172935 3.29465L0.703179 0.513697C0.771767 0.236225 1.02118 0.0398124 1.308 0.0398124H2.67666C2.96348 0.0398124 3.2129 0.236225 3.28148 0.513697L3.96737 3.29465C4.02037 3.50353 3.95802 3.72489 3.80525 3.88077L2.64548 5.05613ZM1.31112 3.25412L1.99389 3.94624L2.67666 3.25412L2.1903 1.28688H1.79748L1.31112 3.25412ZM2.64548 9.87291C2.64548 9.70768 2.58001 9.55179 2.46466 9.43332C2.34619 9.31485 2.1903 9.2525 2.02507 9.2525C1.68212 9.2525 1.40153 9.53309 1.40153 9.87603V14.1005C1.40153 14.2657 1.46701 14.4216 1.58236 14.5401C1.70083 14.6585 1.85671 14.7209 2.02195 14.7209C2.18719 14.7209 2.34619 14.6554 2.46154 14.5401C2.58001 14.4216 2.64236 14.2657 2.64236 14.1005L2.64548 9.87291Z" fill="#00A77F"/>
</svg>
